<?xml version="1.0" encoding="iso-8859-1"?>
<!-- Uploaded to: SVG Repo, www.svgrepo.com, Generator: SVG Repo Mixer Tools -->
<svg height="800px" width="800px" version="1.1" id="Layer_1" xmlns="http://www.w3.org/2000/svg" xmlns:xlink="http://www.w3.org/1999/xlink" 
	 viewBox="0 0 512 512" xml:space="preserve">
<circle style="fill:#273B7A;" cx="256" cy="256" r="256"/>
<g>
	<path style="fill:#121149;" d="M369.778,145.954l-28.634,31.992l-76.738-77.991l-2.61,39.986l-14.217,14.65l58.652,58.651
		L194.22,288.525l-37.104-37.105L99.63,264.044l70.944,70.944l-27.331,33.77l141.614,141.614
		c117.817-13.219,211.435-106.389,225.342-223.997L369.778,145.954z"/>
	<polyline style="fill:#121149;" points="164.983,182.05 239.997,257.064 243.933,264.045 266.831,249.766 175.087,158.022 	"/>
</g>
<circle style="fill:#FFC61B;" cx="256" cy="256" r="78.041"/>
<path style="fill:#EAA22F;" d="M403.394,268.067h-37.348c-6.665,0-12.067-5.403-12.067-12.067c0-6.665,5.403-12.067,12.067-12.067
	h37.348c6.665,0,12.067,5.403,12.067,12.067C415.461,262.665,410.059,268.067,403.394,268.067z"/>
<g>
	<path style="fill:#FFC61B;" d="M145.954,268.067h-37.348c-6.665,0-12.067-5.403-12.067-12.067c0-6.665,5.403-12.067,12.067-12.067
		h37.348c6.665,0,12.067,5.403,12.067,12.067C158.022,262.665,152.619,268.067,145.954,268.067z"/>
	<path style="fill:#FFC61B;" d="M256,415.461c-6.665,0-12.067-5.403-12.067-12.067v-37.348c0-6.665,5.403-12.067,12.067-12.067
		c6.665,0,12.067,5.403,12.067,12.067v37.348C268.067,410.059,262.665,415.461,256,415.461z"/>
	<path style="fill:#FFC61B;" d="M256,158.022c-6.665,0-12.067-5.403-12.067-12.067v-37.348c0-6.665,5.403-12.067,12.067-12.067
		c6.665,0,12.067,5.403,12.067,12.067v37.348C268.067,152.619,262.665,158.022,256,158.022z"/>
</g>
<g>
	<path style="fill:#EAA22F;" d="M334.033,256c0-42.999-34.782-77.869-77.745-78.024v156.05
		C299.251,333.869,334.033,298.999,334.033,256z"/>
	<path style="fill:#EAA22F;" d="M256.288,353.992v61.454c6.53-0.155,11.779-5.485,11.779-12.054v-37.348
		C268.067,359.477,262.818,354.147,256.288,353.992z"/>
	<path style="fill:#EAA22F;" d="M256.288,96.553v61.454c6.53-0.155,11.779-5.485,11.779-12.054v-37.347
		C268.067,102.038,262.818,96.708,256.288,96.553z"/>
	<path style="fill:#EAA22F;" d="M360.224,372.291c-3.088,0-6.177-1.179-8.532-3.534l-26.41-26.409
		c-4.713-4.711-4.713-12.354-0.002-17.065c4.713-4.713,12.355-4.711,17.065-0.002l26.41,26.409
		c4.713,4.711,4.713,12.354,0.002,17.065C366.401,371.112,363.311,372.291,360.224,372.291z"/>
</g>
<g>
	<path style="fill:#FFC61B;" d="M178.186,190.255c-3.089,0-6.177-1.179-8.533-3.536l-26.409-26.41
		c-4.711-4.711-4.711-12.354,0.002-17.065c4.713-4.71,12.355-4.708,17.065,0.002l26.409,26.41
		c4.711,4.711,4.711,12.354-0.002,17.065C184.363,189.078,181.274,190.255,178.186,190.255z"/>
	<path style="fill:#FFC61B;" d="M151.776,372.291c-3.088,0-6.177-1.179-8.533-3.534c-4.711-4.713-4.711-12.354,0-17.067l26.41-26.41
		c4.713-4.71,12.354-4.71,17.067,0c4.711,4.713,4.711,12.353,0,17.067l-26.41,26.41
		C157.953,371.112,154.864,372.291,151.776,372.291z"/>
</g>
<path style="fill:#EAA22F;" d="M333.814,190.254c-3.088,0-6.177-1.179-8.533-3.534c-4.711-4.713-4.711-12.354,0-17.067l26.41-26.41
	c4.713-4.71,12.353-4.71,17.067,0c4.711,4.713,4.711,12.354,0,17.067l-26.41,26.41C339.99,189.076,336.901,190.254,333.814,190.254z
	"/>
</svg>